<?xml version="1.0" encoding="UTF-8" standalone="no"?>
<!DOCTYPE svg PUBLIC "-//W3C//DTD SVG 1.1//EN"
 "http://www.w3.org/Graphics/SVG/1.1/DTD/svg11.dtd">
<!-- Generated by graphviz version 2.47.0 (20210316.0004)
 -->
<!-- Title: dependencies Pages: 1 -->
<svg width="504pt" height="211pt"
 viewBox="0.00 0.00 504.00 211.00" xmlns="http://www.w3.org/2000/svg" xmlns:xlink="http://www.w3.org/1999/xlink">
<g id="graph0" class="graph" transform="scale(1 1) rotate(0) translate(4 207)">
<title>dependencies</title>
<polygon fill="white" stroke="transparent" points="-4,4 -4,-207 500,-207 500,4 -4,4"/>
<text text-anchor="start" x="227.01" y="-42.4" font-family="Times-12" font-weight="bold" font-size="14.00">Legend</text>
<polygon fill="#ffffb3" stroke="transparent" points="14,-10 14,-30 34,-30 34,-10 14,-10"/>
<text text-anchor="start" x="37.63" y="-15.4" font-family="Times-12" font-size="14.00"> &#160;Declarations</text>
<polygon fill="#8dd3c7" stroke="transparent" points="127,-10 127,-30 147,-30 147,-10 127,-10"/>
<text text-anchor="start" x="150.73" y="-15.4" font-family="Times-12" font-size="14.00"> &#160;Module</text>
<polygon fill="#80b1d3" stroke="transparent" points="213,-10 213,-30 233,-30 233,-10 213,-10"/>
<text text-anchor="start" x="236.78" y="-15.4" font-family="Times-12" font-size="14.00"> &#160;Bootstrap</text>
<polygon fill="#fdb462" stroke="transparent" points="310,-10 310,-30 330,-30 330,-10 310,-10"/>
<text text-anchor="start" x="333.67" y="-15.4" font-family="Times-12" font-size="14.00"> &#160;Providers</text>
<polygon fill="#fb8072" stroke="transparent" points="406,-10 406,-30 426,-30 426,-10 406,-10"/>
<text text-anchor="start" x="429.73" y="-15.4" font-family="Times-12" font-size="14.00"> &#160;Exports</text>
<g id="clust1" class="cluster">
<title>cluster_DashboardModule</title>
<polygon fill="none" stroke="black" stroke-dasharray="1,5" points="88,-70 88,-195 408,-195 408,-70 88,-70"/>
</g>
<g id="clust3" class="cluster">
<title>cluster_DashboardModule_imports</title>
<polygon fill="none" stroke="black" points="284,-78 284,-130 400,-130 400,-78 284,-78"/>
</g>
<g id="clust6" class="cluster">
<title>cluster_DashboardModule_providers</title>
<polygon fill="none" stroke="black" points="96,-78 96,-130 276,-130 276,-78 96,-78"/>
</g>
<!-- WidgetModule -->
<g id="node1" class="node">
<title>WidgetModule</title>
<polygon fill="#8dd3c7" stroke="black" points="392.26,-122 389.26,-126 368.26,-126 365.26,-122 291.74,-122 291.74,-86 392.26,-86 392.26,-122"/>
<text text-anchor="middle" x="342" y="-99.8" font-family="Times,serif" font-size="14.00">WidgetModule</text>
</g>
<!-- DashboardModule -->
<g id="node2" class="node">
<title>DashboardModule</title>
<polygon fill="#8dd3c7" stroke="black" points="323.19,-187 320.19,-191 299.19,-191 296.19,-187 202.81,-187 202.81,-151 323.19,-151 323.19,-187"/>
<text text-anchor="middle" x="263" y="-164.8" font-family="Times,serif" font-size="14.00">DashboardModule</text>
</g>
<!-- WidgetModule&#45;&gt;DashboardModule -->
<g id="edge1" class="edge">
<title>WidgetModule&#45;&gt;DashboardModule</title>
<path fill="none" stroke="black" d="M307.36,-122.11C307.36,-122.11 307.36,-140.99 307.36,-140.99"/>
<polygon fill="black" stroke="black" points="303.86,-140.99 307.36,-150.99 310.86,-140.99 303.86,-140.99"/>
</g>
<!-- DashboardService -->
<g id="node3" class="node">
<title>DashboardService</title>
<ellipse fill="#fdb462" stroke="black" cx="186" cy="-104" rx="81.64" ry="18"/>
<text text-anchor="middle" x="186" y="-99.8" font-family="Times,serif" font-size="14.00">DashboardService</text>
</g>
<!-- DashboardService&#45;&gt;DashboardModule -->
<g id="edge2" class="edge">
<title>DashboardService&#45;&gt;DashboardModule</title>
<path fill="none" stroke="black" d="M235.36,-118.43C235.36,-118.43 235.36,-140.89 235.36,-140.89"/>
<polygon fill="black" stroke="black" points="231.86,-140.89 235.36,-150.89 238.86,-140.89 231.86,-140.89"/>
</g>
</g>
</svg>
