<?xml version="1.0" encoding="UTF-8" standalone="no"?>
<!DOCTYPE svg PUBLIC "-//W3C//DTD SVG 1.1//EN"
 "http://www.w3.org/Graphics/SVG/1.1/DTD/svg11.dtd">
<!-- Generated by graphviz version 2.47.0 (20210316.0004)
 -->
<!-- Title: dependencies Pages: 1 -->
<svg width="504pt" height="284pt"
 viewBox="0.00 0.00 504.00 284.00" xmlns="http://www.w3.org/2000/svg" xmlns:xlink="http://www.w3.org/1999/xlink">
<g id="graph0" class="graph" transform="scale(1 1) rotate(0) translate(4 280)">
<title>dependencies</title>
<polygon fill="white" stroke="transparent" points="-4,4 -4,-280 500,-280 500,4 -4,4"/>
<text text-anchor="start" x="227.01" y="-42.4" font-family="Times-12" font-weight="bold" font-size="14.00">Legend</text>
<polygon fill="#ffffb3" stroke="transparent" points="14,-10 14,-30 34,-30 34,-10 14,-10"/>
<text text-anchor="start" x="37.63" y="-15.4" font-family="Times-12" font-size="14.00"> &#160;Declarations</text>
<polygon fill="#8dd3c7" stroke="transparent" points="127,-10 127,-30 147,-30 147,-10 127,-10"/>
<text text-anchor="start" x="150.73" y="-15.4" font-family="Times-12" font-size="14.00"> &#160;Module</text>
<polygon fill="#80b1d3" stroke="transparent" points="213,-10 213,-30 233,-30 233,-10 213,-10"/>
<text text-anchor="start" x="236.78" y="-15.4" font-family="Times-12" font-size="14.00"> &#160;Bootstrap</text>
<polygon fill="#fdb462" stroke="transparent" points="310,-10 310,-30 330,-30 330,-10 310,-10"/>
<text text-anchor="start" x="333.67" y="-15.4" font-family="Times-12" font-size="14.00"> &#160;Providers</text>
<polygon fill="#fb8072" stroke="transparent" points="406,-10 406,-30 426,-30 426,-10 406,-10"/>
<text text-anchor="start" x="429.73" y="-15.4" font-family="Times-12" font-size="14.00"> &#160;Exports</text>
<g id="clust1" class="cluster">
<title>cluster_WidgetModule</title>
<polygon fill="none" stroke="black" stroke-dasharray="1,5" points="88,-70 88,-268 408,-268 408,-70 88,-70"/>
</g>
<g id="clust3" class="cluster">
<title>cluster_WidgetModule_imports</title>
<polygon fill="none" stroke="black" points="256,-78 256,-130 400,-130 400,-78 256,-78"/>
</g>
<g id="clust6" class="cluster">
<title>cluster_WidgetModule_providers</title>
<polygon fill="none" stroke="black" points="96,-78 96,-130 248,-130 248,-78 96,-78"/>
</g>
<g id="clust4" class="cluster">
<title>cluster_WidgetModule_exports</title>
<polygon fill="none" stroke="black" points="191,-208 191,-260 309,-260 309,-208 191,-208"/>
</g>
<!-- OpenSearchModule -->
<g id="node1" class="node">
<title>OpenSearchModule</title>
<polygon fill="#8dd3c7" stroke="black" points="391.96,-122 388.96,-126 367.96,-126 364.96,-122 264.04,-122 264.04,-86 391.96,-86 391.96,-122"/>
<text text-anchor="middle" x="328" y="-99.8" font-family="Times,serif" font-size="14.00">OpenSearchModule</text>
</g>
<!-- WidgetModule -->
<g id="node2" class="node">
<title>WidgetModule</title>
<polygon fill="#8dd3c7" stroke="black" points="300.26,-187 297.26,-191 276.26,-191 273.26,-187 199.74,-187 199.74,-151 300.26,-151 300.26,-187"/>
<text text-anchor="middle" x="250" y="-164.8" font-family="Times,serif" font-size="14.00">WidgetModule</text>
</g>
<!-- OpenSearchModule&#45;&gt;WidgetModule -->
<g id="edge1" class="edge">
<title>OpenSearchModule&#45;&gt;WidgetModule</title>
<path fill="none" stroke="black" d="M282.2,-122.11C282.2,-122.11 282.2,-140.99 282.2,-140.99"/>
<polygon fill="black" stroke="black" points="278.7,-140.99 282.2,-150.99 285.7,-140.99 278.7,-140.99"/>
</g>
<!-- WidgetService  -->
<g id="node3" class="node">
<title>WidgetService </title>
<polygon fill="#fb8072" stroke="black" points="301.19,-252 198.81,-252 198.81,-216 301.19,-216 301.19,-252"/>
<text text-anchor="middle" x="250" y="-229.8" font-family="Times,serif" font-size="14.00">WidgetService </text>
</g>
<!-- WidgetModule&#45;&gt;WidgetService  -->
<g id="edge2" class="edge">
<title>WidgetModule&#45;&gt;WidgetService </title>
<path fill="none" stroke="black" stroke-dasharray="5,2" d="M250,-187.11C250,-187.11 250,-205.99 250,-205.99"/>
<polygon fill="black" stroke="black" points="246.5,-205.99 250,-215.99 253.5,-205.99 246.5,-205.99"/>
</g>
<!-- WidgetService -->
<g id="node4" class="node">
<title>WidgetService</title>
<ellipse fill="#fdb462" stroke="black" cx="172" cy="-104" rx="68.34" ry="18"/>
<text text-anchor="middle" x="172" y="-99.8" font-family="Times,serif" font-size="14.00">WidgetService</text>
</g>
<!-- WidgetService&#45;&gt;WidgetModule -->
<g id="edge3" class="edge">
<title>WidgetService&#45;&gt;WidgetModule</title>
<path fill="none" stroke="black" d="M220.02,-116.84C220.02,-116.84 220.02,-140.52 220.02,-140.52"/>
<polygon fill="black" stroke="black" points="216.52,-140.52 220.02,-150.52 223.52,-140.52 216.52,-140.52"/>
</g>
</g>
</svg>
