<?xml version="1.0" encoding="UTF-8" standalone="no"?>
<!DOCTYPE svg PUBLIC "-//W3C//DTD SVG 1.1//EN"
 "http://www.w3.org/Graphics/SVG/1.1/DTD/svg11.dtd">
<!-- Generated by graphviz version 2.47.0 (20210316.0004)
 -->
<!-- Title: dependencies Pages: 1 -->
<svg width="2606pt" height="515pt"
 viewBox="0.00 0.00 2606.00 515.00" xmlns="http://www.w3.org/2000/svg" xmlns:xlink="http://www.w3.org/1999/xlink">
<g id="graph0" class="graph" transform="scale(1 1) rotate(0) translate(4 511)">
<title>dependencies</title>
<polygon fill="white" stroke="transparent" points="-4,4 -4,-511 2602,-511 2602,4 -4,4"/>
<text text-anchor="start" x="1278.01" y="-42.4" font-family="Times-12" font-weight="bold" font-size="14.00">Legend</text>
<polygon fill="#ffffb3" stroke="transparent" points="1065,-10 1065,-30 1085,-30 1085,-10 1065,-10"/>
<text text-anchor="start" x="1088.63" y="-15.4" font-family="Times-12" font-size="14.00"> &#160;Declarations</text>
<polygon fill="#8dd3c7" stroke="transparent" points="1178,-10 1178,-30 1198,-30 1198,-10 1178,-10"/>
<text text-anchor="start" x="1201.73" y="-15.4" font-family="Times-12" font-size="14.00"> &#160;Module</text>
<polygon fill="#80b1d3" stroke="transparent" points="1264,-10 1264,-30 1284,-30 1284,-10 1264,-10"/>
<text text-anchor="start" x="1287.78" y="-15.4" font-family="Times-12" font-size="14.00"> &#160;Bootstrap</text>
<polygon fill="#fdb462" stroke="transparent" points="1361,-10 1361,-30 1381,-30 1381,-10 1361,-10"/>
<text text-anchor="start" x="1384.67" y="-15.4" font-family="Times-12" font-size="14.00"> &#160;Providers</text>
<polygon fill="#fb8072" stroke="transparent" points="1457,-10 1457,-30 1477,-30 1477,-10 1457,-10"/>
<text text-anchor="start" x="1480.73" y="-15.4" font-family="Times-12" font-size="14.00"> &#160;Exports</text>
<g id="clust1" class="cluster">
<title>cluster_AppModule</title>
<polygon fill="none" stroke="black" stroke-dasharray="1,5" points="624,-146 624,-499 1734,-499 1734,-146 624,-146"/>
</g>
<g id="clust3" class="cluster">
<title>cluster_AppModule_imports</title>
<polygon fill="none" stroke="black" points="770,-154 770,-434 1726,-434 1726,-154 770,-154"/>
</g>
<g id="clust6" class="cluster">
<title>cluster_AppModule_providers</title>
<polygon fill="none" stroke="black" points="632,-382 632,-434 762,-434 762,-382 632,-382"/>
</g>
<g id="clust13" class="cluster">
<title>cluster_CachingModule</title>
<polygon fill="none" stroke="black" stroke-dasharray="1,5" points="1742,-222 1742,-290 2050,-290 2050,-222 1742,-222"/>
</g>
<g id="clust16" class="cluster">
<title>cluster_CachingModule_exports</title>
<polygon fill="none" stroke="black" points="1918,-230 1918,-282 2042,-282 2042,-230 1918,-230"/>
</g>
<g id="clust18" class="cluster">
<title>cluster_CachingModule_providers</title>
<polygon fill="none" stroke="black" points="1750,-230 1750,-282 1910,-282 1910,-230 1750,-230"/>
</g>
<g id="clust19" class="cluster">
<title>cluster_DashboardCategoryModule</title>
<polygon fill="none" stroke="black" stroke-dasharray="1,5" points="649,-70 649,-138 915,-138 915,-70 649,-70"/>
</g>
<g id="clust24" class="cluster">
<title>cluster_DashboardCategoryModule_providers</title>
<polygon fill="none" stroke="black" points="657,-78 657,-130 907,-130 907,-78 657,-78"/>
</g>
<g id="clust25" class="cluster">
<title>cluster_DashboardModule</title>
<polygon fill="none" stroke="black" stroke-dasharray="1,5" points="420,-298 420,-366 616,-366 616,-298 420,-298"/>
</g>
<g id="clust30" class="cluster">
<title>cluster_DashboardModule_providers</title>
<polygon fill="none" stroke="black" points="428,-306 428,-358 608,-358 608,-306 428,-306"/>
</g>
<g id="clust31" class="cluster">
<title>cluster_DashboardProfileModule</title>
<polygon fill="none" stroke="black" stroke-dasharray="1,5" points="923,-70 923,-138 1171,-138 1171,-70 923,-70"/>
</g>
<g id="clust36" class="cluster">
<title>cluster_DashboardProfileModule_providers</title>
<polygon fill="none" stroke="black" points="931,-78 931,-130 1163,-130 1163,-78 931,-78"/>
</g>
<g id="clust37" class="cluster">
<title>cluster_GrpcModule</title>
<polygon fill="none" stroke="black" stroke-dasharray="1,5" points="2058,-222 2058,-290 2322,-290 2322,-222 2058,-222"/>
</g>
<g id="clust40" class="cluster">
<title>cluster_GrpcModule_exports</title>
<polygon fill="none" stroke="black" points="2208,-230 2208,-282 2314,-282 2314,-230 2208,-230"/>
</g>
<g id="clust42" class="cluster">
<title>cluster_GrpcModule_providers</title>
<polygon fill="none" stroke="black" points="2066,-230 2066,-282 2200,-282 2200,-230 2066,-230"/>
</g>
<g id="clust43" class="cluster">
<title>cluster_OpenSearchModule</title>
<polygon fill="none" stroke="black" stroke-dasharray="1,5" points="8,-146 8,-214 616,-214 616,-146 8,-146"/>
</g>
<g id="clust46" class="cluster">
<title>cluster_OpenSearchModule_exports</title>
<polygon fill="none" stroke="black" points="462,-154 462,-206 608,-206 608,-154 462,-154"/>
</g>
<g id="clust48" class="cluster">
<title>cluster_OpenSearchModule_providers</title>
<polygon fill="none" stroke="black" points="16,-154 16,-206 454,-206 454,-154 16,-154"/>
</g>
<g id="clust49" class="cluster">
<title>cluster_RoleModule</title>
<polygon fill="none" stroke="black" stroke-dasharray="1,5" points="2330,-222 2330,-290 2590,-290 2590,-222 2330,-222"/>
</g>
<g id="clust52" class="cluster">
<title>cluster_RoleModule_exports</title>
<polygon fill="none" stroke="black" points="2478,-230 2478,-282 2582,-282 2582,-230 2478,-230"/>
</g>
<g id="clust54" class="cluster">
<title>cluster_RoleModule_providers</title>
<polygon fill="none" stroke="black" points="2338,-230 2338,-282 2470,-282 2470,-230 2338,-230"/>
</g>
<g id="clust55" class="cluster">
<title>cluster_UserVariableModule</title>
<polygon fill="none" stroke="black" stroke-dasharray="1,5" points="1179,-70 1179,-138 1393,-138 1393,-70 1179,-70"/>
</g>
<g id="clust60" class="cluster">
<title>cluster_UserVariableModule_providers</title>
<polygon fill="none" stroke="black" points="1187,-78 1187,-130 1385,-130 1385,-78 1187,-78"/>
</g>
<g id="clust61" class="cluster">
<title>cluster_WidgetModule</title>
<polygon fill="none" stroke="black" stroke-dasharray="1,5" points="1742,-374 1742,-442 2036,-442 2036,-374 1742,-374"/>
</g>
<g id="clust64" class="cluster">
<title>cluster_WidgetModule_exports</title>
<polygon fill="none" stroke="black" points="1910,-382 1910,-434 2028,-434 2028,-382 1910,-382"/>
</g>
<g id="clust66" class="cluster">
<title>cluster_WidgetModule_providers</title>
<polygon fill="none" stroke="black" points="1750,-382 1750,-434 1902,-434 1902,-382 1750,-382"/>
</g>
<!-- AuthModule -->
<g id="node1" class="node">
<title>AuthModule</title>
<polygon fill="#8dd3c7" stroke="black" points="1383.55,-198 1380.55,-202 1359.55,-202 1356.55,-198 1296.45,-198 1296.45,-162 1383.55,-162 1383.55,-198"/>
<text text-anchor="middle" x="1340" y="-175.8" font-family="Times,serif" font-size="14.00">AuthModule</text>
</g>
<!-- AppModule -->
<g id="node11" class="node">
<title>AppModule</title>
<polygon fill="#8dd3c7" stroke="black" points="1232.66,-491 1229.66,-495 1208.66,-495 1205.66,-491 1149.34,-491 1149.34,-455 1232.66,-455 1232.66,-491"/>
<text text-anchor="middle" x="1191" y="-468.8" font-family="Times,serif" font-size="14.00">AppModule</text>
</g>
<!-- AuthModule&#45;&gt;AppModule -->
<g id="edge1" class="edge">
<title>AuthModule&#45;&gt;AppModule</title>
<path fill="none" stroke="black" d="M1340,-198.13C1340,-260.59 1340,-463 1340,-463 1340,-463 1242.9,-463 1242.9,-463"/>
<polygon fill="black" stroke="black" points="1242.9,-459.5 1232.9,-463 1242.9,-466.5 1242.9,-459.5"/>
</g>
<!-- CachingModule -->
<g id="node2" class="node">
<title>CachingModule</title>
<polygon fill="#8dd3c7" stroke="black" points="1508.21,-198 1505.21,-202 1484.21,-202 1481.21,-198 1401.79,-198 1401.79,-162 1508.21,-162 1508.21,-198"/>
<text text-anchor="middle" x="1455" y="-175.8" font-family="Times,serif" font-size="14.00">CachingModule</text>
</g>
<!-- OpenSearchModule -->
<g id="node7" class="node">
<title>OpenSearchModule</title>
<polygon fill="#8dd3c7" stroke="black" points="1110.96,-274 1107.96,-278 1086.96,-278 1083.96,-274 983.04,-274 983.04,-238 1110.96,-238 1110.96,-274"/>
<text text-anchor="middle" x="1047" y="-251.8" font-family="Times,serif" font-size="14.00">OpenSearchModule</text>
</g>
<!-- CachingModule&#45;&gt;OpenSearchModule -->
<g id="edge20" class="edge">
<title>CachingModule&#45;&gt;OpenSearchModule</title>
<path fill="none" stroke="black" d="M1444.38,-198.31C1444.38,-218.15 1444.38,-247 1444.38,-247 1444.38,-247 1121.29,-247 1121.29,-247"/>
<polygon fill="black" stroke="black" points="1121.29,-243.5 1111.29,-247 1121.29,-250.5 1121.29,-243.5"/>
</g>
<!-- CachingModule&#45;&gt;AppModule -->
<g id="edge2" class="edge">
<title>CachingModule&#45;&gt;AppModule</title>
<path fill="none" stroke="black" d="M1465.62,-198.14C1465.62,-261.63 1465.62,-470 1465.62,-470 1465.62,-470 1242.71,-470 1242.71,-470"/>
<polygon fill="black" stroke="black" points="1242.71,-466.5 1232.71,-470 1242.71,-473.5 1242.71,-466.5"/>
</g>
<!-- CachingService  -->
<g id="node13" class="node">
<title>CachingService </title>
<polygon fill="#fb8072" stroke="black" points="2034.13,-274 1925.87,-274 1925.87,-238 2034.13,-238 2034.13,-274"/>
<text text-anchor="middle" x="1980" y="-251.8" font-family="Times,serif" font-size="14.00">CachingService </text>
</g>
<!-- CachingModule&#45;&gt;CachingService  -->
<g id="edge12" class="edge">
<title>CachingModule&#45;&gt;CachingService </title>
<path fill="none" stroke="black" stroke-dasharray="5,2" d="M1423.14,-198.15C1423.14,-211.74 1423.14,-228 1423.14,-228 1423.14,-228 1980,-228 1980,-228 1980,-228 1980,-228.98 1980,-228.98"/>
<polygon fill="black" stroke="black" points="1976.5,-227.79 1980,-237.79 1983.5,-227.79 1976.5,-227.79"/>
</g>
<!-- DashboardCategoryModule -->
<g id="node3" class="node">
<title>DashboardCategoryModule</title>
<polygon fill="#8dd3c7" stroke="black" points="949.51,-198 946.51,-202 925.51,-202 922.51,-198 778.49,-198 778.49,-162 949.51,-162 949.51,-198"/>
<text text-anchor="middle" x="864" y="-175.8" font-family="Times,serif" font-size="14.00">DashboardCategoryModule</text>
</g>
<!-- DashboardCategoryModule&#45;&gt;AppModule -->
<g id="edge3" class="edge">
<title>DashboardCategoryModule&#45;&gt;AppModule</title>
<path fill="none" stroke="black" d="M864,-198.13C864,-262.61 864,-477 864,-477 864,-477 1139.25,-477 1139.25,-477"/>
<polygon fill="black" stroke="black" points="1139.25,-480.5 1149.25,-477 1139.25,-473.5 1139.25,-480.5"/>
</g>
<!-- DashboardModule -->
<g id="node4" class="node">
<title>DashboardModule</title>
<polygon fill="#8dd3c7" stroke="black" points="1112.19,-426 1109.19,-430 1088.19,-430 1085.19,-426 991.81,-426 991.81,-390 1112.19,-390 1112.19,-426"/>
<text text-anchor="middle" x="1052" y="-403.8" font-family="Times,serif" font-size="14.00">DashboardModule</text>
</g>
<!-- DashboardModule&#45;&gt;AppModule -->
<g id="edge4" class="edge">
<title>DashboardModule&#45;&gt;AppModule</title>
<path fill="none" stroke="black" d="M1112.43,-414C1141.48,-414 1170.09,-414 1170.09,-414 1170.09,-414 1170.09,-444.98 1170.09,-444.98"/>
<polygon fill="black" stroke="black" points="1166.59,-444.98 1170.09,-454.98 1173.59,-444.98 1166.59,-444.98"/>
</g>
<!-- DashboardProfileModule -->
<g id="node5" class="node">
<title>DashboardProfileModule</title>
<polygon fill="#8dd3c7" stroke="black" points="1126.29,-198 1123.29,-202 1102.29,-202 1099.29,-198 967.71,-198 967.71,-162 1126.29,-162 1126.29,-198"/>
<text text-anchor="middle" x="1047" y="-175.8" font-family="Times,serif" font-size="14.00">DashboardProfileModule</text>
</g>
<!-- DashboardProfileModule&#45;&gt;OpenSearchModule -->
<g id="edge21" class="edge">
<title>DashboardProfileModule&#45;&gt;OpenSearchModule</title>
<path fill="none" stroke="black" d="M1047,-198.01C1047,-198.01 1047,-227.85 1047,-227.85"/>
<polygon fill="black" stroke="black" points="1043.5,-227.85 1047,-237.85 1050.5,-227.85 1043.5,-227.85"/>
</g>
<!-- DashboardProfileModule&#45;&gt;AppModule -->
<g id="edge5" class="edge">
<title>DashboardProfileModule&#45;&gt;AppModule</title>
<path fill="none" stroke="black" d="M975.44,-198.14C975.44,-261.63 975.44,-470 975.44,-470 975.44,-470 1139.18,-470 1139.18,-470"/>
<polygon fill="black" stroke="black" points="1139.18,-473.5 1149.18,-470 1139.18,-466.5 1139.18,-473.5"/>
</g>
<!-- GrpcModule -->
<g id="node6" class="node">
<title>GrpcModule</title>
<polygon fill="#8dd3c7" stroke="black" points="1613.53,-198 1610.53,-202 1589.53,-202 1586.53,-198 1526.47,-198 1526.47,-162 1613.53,-162 1613.53,-198"/>
<text text-anchor="middle" x="1570" y="-175.8" font-family="Times,serif" font-size="14.00">GrpcModule</text>
</g>
<!-- GrpcModule&#45;&gt;AppModule -->
<g id="edge6" class="edge">
<title>GrpcModule&#45;&gt;AppModule</title>
<path fill="none" stroke="black" d="M1591.88,-198.13C1591.88,-262.61 1591.88,-477 1591.88,-477 1591.88,-477 1242.77,-477 1242.77,-477"/>
<polygon fill="black" stroke="black" points="1242.77,-473.5 1232.77,-477 1242.77,-480.5 1242.77,-473.5"/>
</g>
<!-- GrpcService  -->
<g id="node18" class="node">
<title>GrpcService </title>
<polygon fill="#fb8072" stroke="black" points="2305.96,-274 2216.04,-274 2216.04,-238 2305.96,-238 2305.96,-274"/>
<text text-anchor="middle" x="2261" y="-251.8" font-family="Times,serif" font-size="14.00">GrpcService </text>
</g>
<!-- GrpcModule&#45;&gt;GrpcService  -->
<g id="edge18" class="edge">
<title>GrpcModule&#45;&gt;GrpcService </title>
<path fill="none" stroke="black" stroke-dasharray="5,2" d="M1548.12,-198.21C1548.12,-203.55 1548.12,-208 1548.12,-208 1548.12,-208 2261,-208 2261,-208 2261,-208 2261,-227.85 2261,-227.85"/>
<polygon fill="black" stroke="black" points="2257.5,-227.85 2261,-237.85 2264.5,-227.85 2257.5,-227.85"/>
</g>
<!-- WidgetModule -->
<g id="node10" class="node">
<title>WidgetModule</title>
<polygon fill="#8dd3c7" stroke="black" points="1132.26,-350 1129.26,-354 1108.26,-354 1105.26,-350 1031.74,-350 1031.74,-314 1132.26,-314 1132.26,-350"/>
<text text-anchor="middle" x="1082" y="-327.8" font-family="Times,serif" font-size="14.00">WidgetModule</text>
</g>
<!-- OpenSearchModule&#45;&gt;WidgetModule -->
<g id="edge28" class="edge">
<title>OpenSearchModule&#45;&gt;WidgetModule</title>
<path fill="none" stroke="black" d="M1071.3,-274.01C1071.3,-274.01 1071.3,-303.85 1071.3,-303.85"/>
<polygon fill="black" stroke="black" points="1067.8,-303.85 1071.3,-313.85 1074.8,-303.85 1067.8,-303.85"/>
</g>
<!-- OpenSearchModule&#45;&gt;AppModule -->
<g id="edge7" class="edge">
<title>OpenSearchModule&#45;&gt;AppModule</title>
<path fill="none" stroke="black" d="M1111,-265C1149.46,-265 1191,-265 1191,-265 1191,-265 1191,-444.91 1191,-444.91"/>
<polygon fill="black" stroke="black" points="1187.5,-444.91 1191,-454.91 1194.5,-444.91 1187.5,-444.91"/>
</g>
<!-- OpenSearchService  -->
<g id="node20" class="node">
<title>OpenSearchService </title>
<polygon fill="#fb8072" stroke="black" points="599.89,-198 470.11,-198 470.11,-162 599.89,-162 599.89,-198"/>
<text text-anchor="middle" x="535" y="-175.8" font-family="Times,serif" font-size="14.00">OpenSearchService </text>
</g>
<!-- OpenSearchModule&#45;&gt;OpenSearchService  -->
<g id="edge22" class="edge">
<title>OpenSearchModule&#45;&gt;OpenSearchService </title>
<path fill="none" stroke="black" stroke-dasharray="5,2" d="M982.92,-247C845.53,-247 534.94,-247 534.94,-247 534.94,-247 534.94,-208.31 534.94,-208.31"/>
<polygon fill="black" stroke="black" points="538.44,-208.31 534.94,-198.31 531.44,-208.31 538.44,-208.31"/>
</g>
<!-- RoleModule -->
<g id="node8" class="node">
<title>RoleModule</title>
<polygon fill="#8dd3c7" stroke="black" points="1717.99,-198 1714.99,-202 1693.99,-202 1690.99,-198 1632.01,-198 1632.01,-162 1717.99,-162 1717.99,-198"/>
<text text-anchor="middle" x="1675" y="-175.8" font-family="Times,serif" font-size="14.00">RoleModule</text>
</g>
<!-- RoleModule&#45;&gt;AppModule -->
<g id="edge8" class="edge">
<title>RoleModule&#45;&gt;AppModule</title>
<path fill="none" stroke="black" d="M1675,-198.11C1675,-263.55 1675,-484 1675,-484 1675,-484 1242.68,-484 1242.68,-484"/>
<polygon fill="black" stroke="black" points="1242.68,-480.5 1232.68,-484 1242.68,-487.5 1242.68,-480.5"/>
</g>
<!-- RoleService  -->
<g id="node23" class="node">
<title>RoleService </title>
<polygon fill="#fb8072" stroke="black" points="2573.92,-274 2486.08,-274 2486.08,-238 2573.92,-238 2573.92,-274"/>
<text text-anchor="middle" x="2530" y="-251.8" font-family="Times,serif" font-size="14.00">RoleService </text>
</g>
<!-- RoleModule&#45;&gt;RoleService  -->
<g id="edge25" class="edge">
<title>RoleModule&#45;&gt;RoleService </title>
<path fill="none" stroke="black" stroke-dasharray="5,2" d="M1718.28,-174C1892.09,-174 2530,-174 2530,-174 2530,-174 2530,-227.8 2530,-227.8"/>
<polygon fill="black" stroke="black" points="2526.5,-227.8 2530,-237.8 2533.5,-227.8 2526.5,-227.8"/>
</g>
<!-- UserVariableModule -->
<g id="node9" class="node">
<title>UserVariableModule</title>
<polygon fill="#8dd3c7" stroke="black" points="1278.17,-198 1275.17,-202 1254.17,-202 1251.17,-198 1143.83,-198 1143.83,-162 1278.17,-162 1278.17,-198"/>
<text text-anchor="middle" x="1211" y="-175.8" font-family="Times,serif" font-size="14.00">UserVariableModule</text>
</g>
<!-- UserVariableModule&#45;&gt;AppModule -->
<g id="edge9" class="edge">
<title>UserVariableModule&#45;&gt;AppModule</title>
<path fill="none" stroke="black" d="M1211.91,-198.33C1211.91,-198.33 1211.91,-444.68 1211.91,-444.68"/>
<polygon fill="black" stroke="black" points="1208.41,-444.68 1211.91,-454.68 1215.41,-444.68 1208.41,-444.68"/>
</g>
<!-- WidgetModule&#45;&gt;DashboardModule -->
<g id="edge15" class="edge">
<title>WidgetModule&#45;&gt;DashboardModule</title>
<path fill="none" stroke="black" d="M1071.86,-350.01C1071.86,-350.01 1071.86,-379.85 1071.86,-379.85"/>
<polygon fill="black" stroke="black" points="1068.36,-379.85 1071.86,-389.85 1075.36,-379.85 1068.36,-379.85"/>
</g>
<!-- WidgetModule&#45;&gt;AppModule -->
<g id="edge10" class="edge">
<title>WidgetModule&#45;&gt;AppModule</title>
<path fill="none" stroke="black" d="M1118.86,-350.21C1118.86,-386.21 1118.86,-463 1118.86,-463 1118.86,-463 1139.03,-463 1139.03,-463"/>
<polygon fill="black" stroke="black" points="1139.03,-466.5 1149.03,-463 1139.03,-459.5 1139.03,-466.5"/>
</g>
<!-- WidgetService  -->
<g id="node26" class="node">
<title>WidgetService </title>
<polygon fill="#fb8072" stroke="black" points="2020.19,-426 1917.81,-426 1917.81,-390 2020.19,-390 2020.19,-426"/>
<text text-anchor="middle" x="1969" y="-403.8" font-family="Times,serif" font-size="14.00">WidgetService </text>
</g>
<!-- WidgetModule&#45;&gt;WidgetService  -->
<g id="edge29" class="edge">
<title>WidgetModule&#45;&gt;WidgetService </title>
<path fill="none" stroke="black" stroke-dasharray="5,2" d="M1132.33,-332C1313.51,-332 1921.79,-332 1921.79,-332 1921.79,-332 1921.79,-379.99 1921.79,-379.99"/>
<polygon fill="black" stroke="black" points="1918.29,-379.99 1921.79,-389.99 1925.29,-379.99 1918.29,-379.99"/>
</g>
<!-- AppService -->
<g id="node12" class="node">
<title>AppService</title>
<ellipse fill="#fdb462" stroke="black" cx="697" cy="-408" rx="56.74" ry="18"/>
<text text-anchor="middle" x="697" y="-403.8" font-family="Times,serif" font-size="14.00">AppService</text>
</g>
<!-- AppService&#45;&gt;AppModule -->
<g id="edge11" class="edge">
<title>AppService&#45;&gt;AppModule</title>
<path fill="none" stroke="black" d="M697,-426.01C697,-448.49 697,-484 697,-484 697,-484 1139.31,-484 1139.31,-484"/>
<polygon fill="black" stroke="black" points="1139.31,-487.5 1149.31,-484 1139.31,-480.5 1139.31,-487.5"/>
</g>
<!-- CachingService -->
<g id="node14" class="node">
<title>CachingService</title>
<ellipse fill="#fdb462" stroke="black" cx="1830" cy="-256" rx="72.35" ry="18"/>
<text text-anchor="middle" x="1830" y="-251.8" font-family="Times,serif" font-size="14.00">CachingService</text>
</g>
<!-- CachingService&#45;&gt;CachingModule -->
<g id="edge13" class="edge">
<title>CachingService&#45;&gt;CachingModule</title>
<path fill="none" stroke="black" d="M1757.65,-256C1656.98,-256 1486.86,-256 1486.86,-256 1486.86,-256 1486.86,-208.01 1486.86,-208.01"/>
<polygon fill="black" stroke="black" points="1490.36,-208.01 1486.86,-198.01 1483.36,-208.01 1490.36,-208.01"/>
</g>
<!-- DashboardCategoryService -->
<g id="node15" class="node">
<title>DashboardCategoryService</title>
<ellipse fill="#fdb462" stroke="black" cx="782" cy="-104" rx="117.44" ry="18"/>
<text text-anchor="middle" x="782" y="-99.8" font-family="Times,serif" font-size="14.00">DashboardCategoryService</text>
</g>
<!-- DashboardCategoryService&#45;&gt;DashboardCategoryModule -->
<g id="edge14" class="edge">
<title>DashboardCategoryService&#45;&gt;DashboardCategoryModule</title>
<path fill="none" stroke="black" d="M838.73,-120.12C838.73,-120.12 838.73,-151.77 838.73,-151.77"/>
<polygon fill="black" stroke="black" points="835.23,-151.77 838.73,-161.77 842.23,-151.77 835.23,-151.77"/>
</g>
<!-- DashboardService -->
<g id="node16" class="node">
<title>DashboardService</title>
<ellipse fill="#fdb462" stroke="black" cx="518" cy="-332" rx="81.64" ry="18"/>
<text text-anchor="middle" x="518" y="-327.8" font-family="Times,serif" font-size="14.00">DashboardService</text>
</g>
<!-- DashboardService&#45;&gt;DashboardModule -->
<g id="edge16" class="edge">
<title>DashboardService&#45;&gt;DashboardModule</title>
<path fill="none" stroke="black" d="M600.09,-332C740.49,-332 1011.76,-332 1011.76,-332 1011.76,-332 1011.76,-379.99 1011.76,-379.99"/>
<polygon fill="black" stroke="black" points="1008.26,-379.99 1011.76,-389.99 1015.26,-379.99 1008.26,-379.99"/>
</g>
<!-- DashboardProfileService -->
<g id="node17" class="node">
<title>DashboardProfileService</title>
<ellipse fill="#fdb462" stroke="black" cx="1047" cy="-104" rx="108.2" ry="18"/>
<text text-anchor="middle" x="1047" y="-99.8" font-family="Times,serif" font-size="14.00">DashboardProfileService</text>
</g>
<!-- DashboardProfileService&#45;&gt;DashboardProfileModule -->
<g id="edge17" class="edge">
<title>DashboardProfileService&#45;&gt;DashboardProfileModule</title>
<path fill="none" stroke="black" d="M1047,-122.01C1047,-122.01 1047,-151.85 1047,-151.85"/>
<polygon fill="black" stroke="black" points="1043.5,-151.85 1047,-161.85 1050.5,-151.85 1043.5,-151.85"/>
</g>
<!-- GrpcService -->
<g id="node19" class="node">
<title>GrpcService</title>
<ellipse fill="#fdb462" stroke="black" cx="2133" cy="-256" rx="59.09" ry="18"/>
<text text-anchor="middle" x="2133" y="-251.8" font-family="Times,serif" font-size="14.00">GrpcService</text>
</g>
<!-- GrpcService&#45;&gt;GrpcModule -->
<g id="edge19" class="edge">
<title>GrpcService&#45;&gt;GrpcModule</title>
<path fill="none" stroke="black" d="M2133,-237.89C2133,-228.1 2133,-218 2133,-218 2133,-218 1570,-218 1570,-218 1570,-218 1570,-208.11 1570,-208.11"/>
<polygon fill="black" stroke="black" points="1573.5,-208.11 1570,-198.11 1566.5,-208.11 1573.5,-208.11"/>
</g>
<!-- OpenSearchClientProvider -->
<g id="node21" class="node">
<title>OpenSearchClientProvider</title>
<ellipse fill="#fdb462" stroke="black" cx="331" cy="-180" rx="115.17" ry="18"/>
<text text-anchor="middle" x="331" y="-175.8" font-family="Times,serif" font-size="14.00">OpenSearchClientProvider</text>
</g>
<!-- OpenSearchClientProvider&#45;&gt;OpenSearchModule -->
<g id="edge23" class="edge">
<title>OpenSearchClientProvider&#45;&gt;OpenSearchModule</title>
<path fill="none" stroke="black" d="M441.13,-185.47C441.13,-202.89 441.13,-256 441.13,-256 441.13,-256 973.02,-256 973.02,-256"/>
<polygon fill="black" stroke="black" points="973.02,-259.5 983.02,-256 973.02,-252.5 973.02,-259.5"/>
</g>
<!-- OpenSearchService -->
<g id="node22" class="node">
<title>OpenSearchService</title>
<ellipse fill="#fdb462" stroke="black" cx="111" cy="-180" rx="87.36" ry="18"/>
<text text-anchor="middle" x="111" y="-175.8" font-family="Times,serif" font-size="14.00">OpenSearchService</text>
</g>
<!-- OpenSearchService&#45;&gt;OpenSearchModule -->
<g id="edge24" class="edge">
<title>OpenSearchService&#45;&gt;OpenSearchModule</title>
<path fill="none" stroke="black" d="M111,-198.03C111,-222.98 111,-265 111,-265 111,-265 973.03,-265 973.03,-265"/>
<polygon fill="black" stroke="black" points="973.03,-268.5 983.03,-265 973.03,-261.5 973.03,-268.5"/>
</g>
<!-- RoleService -->
<g id="node24" class="node">
<title>RoleService</title>
<ellipse fill="#fdb462" stroke="black" cx="2404" cy="-256" rx="58.46" ry="18"/>
<text text-anchor="middle" x="2404" y="-251.8" font-family="Times,serif" font-size="14.00">RoleService</text>
</g>
<!-- RoleService&#45;&gt;RoleModule -->
<g id="edge26" class="edge">
<title>RoleService&#45;&gt;RoleModule</title>
<path fill="none" stroke="black" d="M2404,-237.97C2404,-217.23 2404,-186 2404,-186 2404,-186 1728.15,-186 1728.15,-186"/>
<polygon fill="black" stroke="black" points="1728.15,-182.5 1718.15,-186 1728.15,-189.5 1728.15,-182.5"/>
</g>
<!-- UserVariableService -->
<g id="node25" class="node">
<title>UserVariableService</title>
<ellipse fill="#fdb462" stroke="black" cx="1286" cy="-104" rx="91.42" ry="18"/>
<text text-anchor="middle" x="1286" y="-99.8" font-family="Times,serif" font-size="14.00">UserVariableService</text>
</g>
<!-- UserVariableService&#45;&gt;UserVariableModule -->
<g id="edge27" class="edge">
<title>UserVariableService&#45;&gt;UserVariableModule</title>
<path fill="none" stroke="black" d="M1236.31,-119.38C1236.31,-119.38 1236.31,-151.97 1236.31,-151.97"/>
<polygon fill="black" stroke="black" points="1232.81,-151.97 1236.31,-161.97 1239.81,-151.97 1232.81,-151.97"/>
</g>
<!-- WidgetService -->
<g id="node27" class="node">
<title>WidgetService</title>
<ellipse fill="#fdb462" stroke="black" cx="1826" cy="-408" rx="68.34" ry="18"/>
<text text-anchor="middle" x="1826" y="-403.8" font-family="Times,serif" font-size="14.00">WidgetService</text>
</g>
<!-- WidgetService&#45;&gt;WidgetModule -->
<g id="edge30" class="edge">
<title>WidgetService&#45;&gt;WidgetModule</title>
<path fill="none" stroke="black" d="M1761.37,-402C1587.98,-402 1125.62,-402 1125.62,-402 1125.62,-402 1125.62,-360.03 1125.62,-360.03"/>
<polygon fill="black" stroke="black" points="1129.12,-360.03 1125.62,-350.03 1122.12,-360.03 1129.12,-360.03"/>
</g>
</g>
</svg>
