<?xml version="1.0" encoding="UTF-8" standalone="no"?>
<!DOCTYPE svg PUBLIC "-//W3C//DTD SVG 1.1//EN"
 "http://www.w3.org/Graphics/SVG/1.1/DTD/svg11.dtd">
<!-- Generated by graphviz version 2.47.0 (20210316.0004)
 -->
<!-- Title: dependencies Pages: 1 -->
<svg width="1536pt" height="211pt"
 viewBox="0.00 0.00 1536.00 211.00" xmlns="http://www.w3.org/2000/svg" xmlns:xlink="http://www.w3.org/1999/xlink">
<g id="graph0" class="graph" transform="scale(1 1) rotate(0) translate(4 207)">
<title>dependencies</title>
<polygon fill="white" stroke="transparent" points="-4,4 -4,-207 1532,-207 1532,4 -4,4"/>
<text text-anchor="start" x="743.01" y="-42.4" font-family="Times-12" font-weight="bold" font-size="14.00">Legend</text>
<polygon fill="#ffffb3" stroke="transparent" points="530,-10 530,-30 550,-30 550,-10 530,-10"/>
<text text-anchor="start" x="553.63" y="-15.4" font-family="Times-12" font-size="14.00"> &#160;Declarations</text>
<polygon fill="#8dd3c7" stroke="transparent" points="643,-10 643,-30 663,-30 663,-10 643,-10"/>
<text text-anchor="start" x="666.73" y="-15.4" font-family="Times-12" font-size="14.00"> &#160;Module</text>
<polygon fill="#80b1d3" stroke="transparent" points="729,-10 729,-30 749,-30 749,-10 729,-10"/>
<text text-anchor="start" x="752.78" y="-15.4" font-family="Times-12" font-size="14.00"> &#160;Bootstrap</text>
<polygon fill="#fdb462" stroke="transparent" points="826,-10 826,-30 846,-30 846,-10 826,-10"/>
<text text-anchor="start" x="849.67" y="-15.4" font-family="Times-12" font-size="14.00"> &#160;Providers</text>
<polygon fill="#fb8072" stroke="transparent" points="922,-10 922,-30 942,-30 942,-10 922,-10"/>
<text text-anchor="start" x="945.73" y="-15.4" font-family="Times-12" font-size="14.00"> &#160;Exports</text>
<g id="clust1" class="cluster">
<title>cluster_AppModule</title>
<polygon fill="none" stroke="black" stroke-dasharray="1,5" points="8,-70 8,-195 1520,-195 1520,-70 8,-70"/>
</g>
<g id="clust3" class="cluster">
<title>cluster_AppModule_imports</title>
<polygon fill="none" stroke="black" points="154,-78 154,-130 1512,-130 1512,-78 154,-78"/>
</g>
<g id="clust6" class="cluster">
<title>cluster_AppModule_providers</title>
<polygon fill="none" stroke="black" points="16,-78 16,-130 146,-130 146,-78 16,-78"/>
</g>
<!-- AuthModule -->
<g id="node1" class="node">
<title>AuthModule</title>
<polygon fill="#8dd3c7" stroke="black" points="1503.55,-122 1500.55,-126 1479.55,-126 1476.55,-122 1416.45,-122 1416.45,-86 1503.55,-86 1503.55,-122"/>
<text text-anchor="middle" x="1460" y="-99.8" font-family="Times,serif" font-size="14.00">AuthModule</text>
</g>
<!-- AppModule -->
<g id="node11" class="node">
<title>AppModule</title>
<polygon fill="#8dd3c7" stroke="black" points="767.66,-187 764.66,-191 743.66,-191 740.66,-187 684.34,-187 684.34,-151 767.66,-151 767.66,-187"/>
<text text-anchor="middle" x="726" y="-164.8" font-family="Times,serif" font-size="14.00">AppModule</text>
</g>
<!-- AuthModule&#45;&gt;AppModule -->
<g id="edge1" class="edge">
<title>AuthModule&#45;&gt;AppModule</title>
<path fill="none" stroke="black" d="M1460,-122.09C1460,-145.13 1460,-182 1460,-182 1460,-182 777.83,-182 777.83,-182"/>
<polygon fill="black" stroke="black" points="777.83,-178.5 767.83,-182 777.83,-185.5 777.83,-178.5"/>
</g>
<!-- CachingModule -->
<g id="node2" class="node">
<title>CachingModule</title>
<polygon fill="#8dd3c7" stroke="black" points="1398.21,-122 1395.21,-126 1374.21,-126 1371.21,-122 1291.79,-122 1291.79,-86 1398.21,-86 1398.21,-122"/>
<text text-anchor="middle" x="1345" y="-99.8" font-family="Times,serif" font-size="14.00">CachingModule</text>
</g>
<!-- CachingModule&#45;&gt;AppModule -->
<g id="edge2" class="edge">
<title>CachingModule&#45;&gt;AppModule</title>
<path fill="none" stroke="black" d="M1345,-122.28C1345,-143.32 1345,-175 1345,-175 1345,-175 778.06,-175 778.06,-175"/>
<polygon fill="black" stroke="black" points="778.06,-171.5 768.06,-175 778.06,-178.5 778.06,-171.5"/>
</g>
<!-- DashboardCategoryModule -->
<g id="node3" class="node">
<title>DashboardCategoryModule</title>
<polygon fill="#8dd3c7" stroke="black" points="1273.51,-122 1270.51,-126 1249.51,-126 1246.51,-122 1102.49,-122 1102.49,-86 1273.51,-86 1273.51,-122"/>
<text text-anchor="middle" x="1188" y="-99.8" font-family="Times,serif" font-size="14.00">DashboardCategoryModule</text>
</g>
<!-- DashboardCategoryModule&#45;&gt;AppModule -->
<g id="edge3" class="edge">
<title>DashboardCategoryModule&#45;&gt;AppModule</title>
<path fill="none" stroke="black" d="M1188,-122.11C1188,-141.34 1188,-169 1188,-169 1188,-169 777.81,-169 777.81,-169"/>
<polygon fill="black" stroke="black" points="777.81,-165.5 767.81,-169 777.81,-172.5 777.81,-165.5"/>
</g>
<!-- DashboardModule -->
<g id="node4" class="node">
<title>DashboardModule</title>
<polygon fill="#8dd3c7" stroke="black" points="1084.19,-122 1081.19,-126 1060.19,-126 1057.19,-122 963.81,-122 963.81,-86 1084.19,-86 1084.19,-122"/>
<text text-anchor="middle" x="1024" y="-99.8" font-family="Times,serif" font-size="14.00">DashboardModule</text>
</g>
<!-- DashboardModule&#45;&gt;AppModule -->
<g id="edge4" class="edge">
<title>DashboardModule&#45;&gt;AppModule</title>
<path fill="none" stroke="black" d="M1024,-122.02C1024,-139.37 1024,-163 1024,-163 1024,-163 777.75,-163 777.75,-163"/>
<polygon fill="black" stroke="black" points="777.75,-159.5 767.75,-163 777.75,-166.5 777.75,-159.5"/>
</g>
<!-- DashboardProfileModule -->
<g id="node5" class="node">
<title>DashboardProfileModule</title>
<polygon fill="#8dd3c7" stroke="black" points="946.29,-122 943.29,-126 922.29,-126 919.29,-122 787.71,-122 787.71,-86 946.29,-86 946.29,-122"/>
<text text-anchor="middle" x="867" y="-99.8" font-family="Times,serif" font-size="14.00">DashboardProfileModule</text>
</g>
<!-- DashboardProfileModule&#45;&gt;AppModule -->
<g id="edge5" class="edge">
<title>DashboardProfileModule&#45;&gt;AppModule</title>
<path fill="none" stroke="black" d="M867,-122.24C867,-137.57 867,-157 867,-157 867,-157 777.92,-157 777.92,-157"/>
<polygon fill="black" stroke="black" points="777.92,-153.5 767.92,-157 777.92,-160.5 777.92,-153.5"/>
</g>
<!-- GrpcModule -->
<g id="node6" class="node">
<title>GrpcModule</title>
<polygon fill="#8dd3c7" stroke="black" points="769.53,-122 766.53,-126 745.53,-126 742.53,-122 682.47,-122 682.47,-86 769.53,-86 769.53,-122"/>
<text text-anchor="middle" x="726" y="-99.8" font-family="Times,serif" font-size="14.00">GrpcModule</text>
</g>
<!-- GrpcModule&#45;&gt;AppModule -->
<g id="edge6" class="edge">
<title>GrpcModule&#45;&gt;AppModule</title>
<path fill="none" stroke="black" d="M726,-122.11C726,-122.11 726,-140.99 726,-140.99"/>
<polygon fill="black" stroke="black" points="722.5,-140.99 726,-150.99 729.5,-140.99 722.5,-140.99"/>
</g>
<!-- OpenSearchModule -->
<g id="node7" class="node">
<title>OpenSearchModule</title>
<polygon fill="#8dd3c7" stroke="black" points="663.96,-122 660.96,-126 639.96,-126 636.96,-122 536.04,-122 536.04,-86 663.96,-86 663.96,-122"/>
<text text-anchor="middle" x="600" y="-99.8" font-family="Times,serif" font-size="14.00">OpenSearchModule</text>
</g>
<!-- OpenSearchModule&#45;&gt;AppModule -->
<g id="edge7" class="edge">
<title>OpenSearchModule&#45;&gt;AppModule</title>
<path fill="none" stroke="black" d="M600,-122.24C600,-137.57 600,-157 600,-157 600,-157 674.04,-157 674.04,-157"/>
<polygon fill="black" stroke="black" points="674.04,-160.5 684.04,-157 674.04,-153.5 674.04,-160.5"/>
</g>
<!-- RoleModule -->
<g id="node8" class="node">
<title>RoleModule</title>
<polygon fill="#8dd3c7" stroke="black" points="517.99,-122 514.99,-126 493.99,-126 490.99,-122 432.01,-122 432.01,-86 517.99,-86 517.99,-122"/>
<text text-anchor="middle" x="475" y="-99.8" font-family="Times,serif" font-size="14.00">RoleModule</text>
</g>
<!-- RoleModule&#45;&gt;AppModule -->
<g id="edge8" class="edge">
<title>RoleModule&#45;&gt;AppModule</title>
<path fill="none" stroke="black" d="M475,-122.02C475,-139.37 475,-163 475,-163 475,-163 674.27,-163 674.27,-163"/>
<polygon fill="black" stroke="black" points="674.27,-166.5 684.27,-163 674.27,-159.5 674.27,-166.5"/>
</g>
<!-- UserVariableModule -->
<g id="node9" class="node">
<title>UserVariableModule</title>
<polygon fill="#8dd3c7" stroke="black" points="414.17,-122 411.17,-126 390.17,-126 387.17,-122 279.83,-122 279.83,-86 414.17,-86 414.17,-122"/>
<text text-anchor="middle" x="347" y="-99.8" font-family="Times,serif" font-size="14.00">UserVariableModule</text>
</g>
<!-- UserVariableModule&#45;&gt;AppModule -->
<g id="edge9" class="edge">
<title>UserVariableModule&#45;&gt;AppModule</title>
<path fill="none" stroke="black" d="M347,-122.11C347,-141.34 347,-169 347,-169 347,-169 673.99,-169 673.99,-169"/>
<polygon fill="black" stroke="black" points="673.99,-172.5 683.99,-169 673.99,-165.5 673.99,-172.5"/>
</g>
<!-- WidgetModule -->
<g id="node10" class="node">
<title>WidgetModule</title>
<polygon fill="#8dd3c7" stroke="black" points="262.26,-122 259.26,-126 238.26,-126 235.26,-122 161.74,-122 161.74,-86 262.26,-86 262.26,-122"/>
<text text-anchor="middle" x="212" y="-99.8" font-family="Times,serif" font-size="14.00">WidgetModule</text>
</g>
<!-- WidgetModule&#45;&gt;AppModule -->
<g id="edge10" class="edge">
<title>WidgetModule&#45;&gt;AppModule</title>
<path fill="none" stroke="black" d="M212,-122.28C212,-143.32 212,-175 212,-175 212,-175 673.94,-175 673.94,-175"/>
<polygon fill="black" stroke="black" points="673.94,-178.5 683.94,-175 673.94,-171.5 673.94,-178.5"/>
</g>
<!-- AppService -->
<g id="node12" class="node">
<title>AppService</title>
<ellipse fill="#fdb462" stroke="black" cx="81" cy="-104" rx="56.74" ry="18"/>
<text text-anchor="middle" x="81" y="-99.8" font-family="Times,serif" font-size="14.00">AppService</text>
</g>
<!-- AppService&#45;&gt;AppModule -->
<g id="edge11" class="edge">
<title>AppService&#45;&gt;AppModule</title>
<path fill="none" stroke="black" d="M81,-122.09C81,-145.13 81,-182 81,-182 81,-182 674.18,-182 674.18,-182"/>
<polygon fill="black" stroke="black" points="674.18,-185.5 684.18,-182 674.18,-178.5 674.18,-185.5"/>
</g>
</g>
</svg>
