<?xml version="1.0" encoding="UTF-8" standalone="no"?>
<!DOCTYPE svg PUBLIC "-//W3C//DTD SVG 1.1//EN"
 "http://www.w3.org/Graphics/SVG/1.1/DTD/svg11.dtd">
<!-- Generated by graphviz version 2.47.0 (20210316.0004)
 -->
<!-- Title: dependencies Pages: 1 -->
<svg width="784pt" height="284pt"
 viewBox="0.00 0.00 784.00 284.00" xmlns="http://www.w3.org/2000/svg" xmlns:xlink="http://www.w3.org/1999/xlink">
<g id="graph0" class="graph" transform="scale(1 1) rotate(0) translate(4 280)">
<title>dependencies</title>
<polygon fill="white" stroke="transparent" points="-4,4 -4,-280 780,-280 780,4 -4,4"/>
<text text-anchor="start" x="367.01" y="-42.4" font-family="Times-12" font-weight="bold" font-size="14.00">Legend</text>
<polygon fill="#ffffb3" stroke="transparent" points="154,-10 154,-30 174,-30 174,-10 154,-10"/>
<text text-anchor="start" x="177.63" y="-15.4" font-family="Times-12" font-size="14.00"> &#160;Declarations</text>
<polygon fill="#8dd3c7" stroke="transparent" points="267,-10 267,-30 287,-30 287,-10 267,-10"/>
<text text-anchor="start" x="290.73" y="-15.4" font-family="Times-12" font-size="14.00"> &#160;Module</text>
<polygon fill="#80b1d3" stroke="transparent" points="353,-10 353,-30 373,-30 373,-10 353,-10"/>
<text text-anchor="start" x="376.78" y="-15.4" font-family="Times-12" font-size="14.00"> &#160;Bootstrap</text>
<polygon fill="#fdb462" stroke="transparent" points="450,-10 450,-30 470,-30 470,-10 450,-10"/>
<text text-anchor="start" x="473.67" y="-15.4" font-family="Times-12" font-size="14.00"> &#160;Providers</text>
<polygon fill="#fb8072" stroke="transparent" points="546,-10 546,-30 566,-30 566,-10 546,-10"/>
<text text-anchor="start" x="569.73" y="-15.4" font-family="Times-12" font-size="14.00"> &#160;Exports</text>
<g id="clust1" class="cluster">
<title>cluster_OpenSearchModule</title>
<polygon fill="none" stroke="black" stroke-dasharray="1,5" points="8,-70 8,-268 768,-268 768,-70 8,-70"/>
</g>
<g id="clust6" class="cluster">
<title>cluster_OpenSearchModule_providers</title>
<polygon fill="none" stroke="black" points="322,-78 322,-130 760,-130 760,-78 322,-78"/>
</g>
<g id="clust4" class="cluster">
<title>cluster_OpenSearchModule_exports</title>
<polygon fill="none" stroke="black" points="262,-208 262,-260 408,-260 408,-208 262,-208"/>
</g>
<g id="clust3" class="cluster">
<title>cluster_OpenSearchModule_imports</title>
<polygon fill="none" stroke="black" points="16,-78 16,-130 314,-130 314,-78 16,-78"/>
</g>
<!-- CachingModule -->
<g id="node1" class="node">
<title>CachingModule</title>
<polygon fill="#8dd3c7" stroke="black" points="306.21,-122 303.21,-126 282.21,-126 279.21,-122 199.79,-122 199.79,-86 306.21,-86 306.21,-122"/>
<text text-anchor="middle" x="253" y="-99.8" font-family="Times,serif" font-size="14.00">CachingModule</text>
</g>
<!-- OpenSearchModule -->
<g id="node3" class="node">
<title>OpenSearchModule</title>
<polygon fill="#8dd3c7" stroke="black" points="398.96,-187 395.96,-191 374.96,-191 371.96,-187 271.04,-187 271.04,-151 398.96,-151 398.96,-187"/>
<text text-anchor="middle" x="335" y="-164.8" font-family="Times,serif" font-size="14.00">OpenSearchModule</text>
</g>
<!-- CachingModule&#45;&gt;OpenSearchModule -->
<g id="edge1" class="edge">
<title>CachingModule&#45;&gt;OpenSearchModule</title>
<path fill="none" stroke="black" d="M288.56,-122.11C288.56,-122.11 288.56,-140.99 288.56,-140.99"/>
<polygon fill="black" stroke="black" points="285.06,-140.99 288.56,-150.99 292.06,-140.99 285.06,-140.99"/>
</g>
<!-- DashboardProfileModule -->
<g id="node2" class="node">
<title>DashboardProfileModule</title>
<polygon fill="#8dd3c7" stroke="black" points="182.29,-122 179.29,-126 158.29,-126 155.29,-122 23.71,-122 23.71,-86 182.29,-86 182.29,-122"/>
<text text-anchor="middle" x="103" y="-99.8" font-family="Times,serif" font-size="14.00">DashboardProfileModule</text>
</g>
<!-- DashboardProfileModule&#45;&gt;OpenSearchModule -->
<g id="edge2" class="edge">
<title>DashboardProfileModule&#45;&gt;OpenSearchModule</title>
<path fill="none" stroke="black" d="M103,-122.11C103,-141.34 103,-169 103,-169 103,-169 260.99,-169 260.99,-169"/>
<polygon fill="black" stroke="black" points="260.99,-172.5 270.99,-169 260.99,-165.5 260.99,-172.5"/>
</g>
<!-- OpenSearchService  -->
<g id="node4" class="node">
<title>OpenSearchService </title>
<polygon fill="#fb8072" stroke="black" points="399.89,-252 270.11,-252 270.11,-216 399.89,-216 399.89,-252"/>
<text text-anchor="middle" x="335" y="-229.8" font-family="Times,serif" font-size="14.00">OpenSearchService </text>
</g>
<!-- OpenSearchModule&#45;&gt;OpenSearchService  -->
<g id="edge3" class="edge">
<title>OpenSearchModule&#45;&gt;OpenSearchService </title>
<path fill="none" stroke="black" stroke-dasharray="5,2" d="M335,-187.11C335,-187.11 335,-205.99 335,-205.99"/>
<polygon fill="black" stroke="black" points="331.5,-205.99 335,-215.99 338.5,-205.99 331.5,-205.99"/>
</g>
<!-- OpenSearchClientProvider -->
<g id="node5" class="node">
<title>OpenSearchClientProvider</title>
<ellipse fill="#fdb462" stroke="black" cx="637" cy="-104" rx="115.17" ry="18"/>
<text text-anchor="middle" x="637" y="-99.8" font-family="Times,serif" font-size="14.00">OpenSearchClientProvider</text>
</g>
<!-- OpenSearchClientProvider&#45;&gt;OpenSearchModule -->
<g id="edge4" class="edge">
<title>OpenSearchClientProvider&#45;&gt;OpenSearchModule</title>
<path fill="none" stroke="black" d="M637,-122.11C637,-141.34 637,-169 637,-169 637,-169 409.05,-169 409.05,-169"/>
<polygon fill="black" stroke="black" points="409.05,-165.5 399.05,-169 409.05,-172.5 409.05,-165.5"/>
</g>
<!-- OpenSearchService -->
<g id="node6" class="node">
<title>OpenSearchService</title>
<ellipse fill="#fdb462" stroke="black" cx="417" cy="-104" rx="87.36" ry="18"/>
<text text-anchor="middle" x="417" y="-99.8" font-family="Times,serif" font-size="14.00">OpenSearchService</text>
</g>
<!-- OpenSearchService&#45;&gt;OpenSearchModule -->
<g id="edge5" class="edge">
<title>OpenSearchService&#45;&gt;OpenSearchModule</title>
<path fill="none" stroke="black" d="M364.4,-118.43C364.4,-118.43 364.4,-140.89 364.4,-140.89"/>
<polygon fill="black" stroke="black" points="360.9,-140.89 364.4,-150.89 367.9,-140.89 360.9,-140.89"/>
</g>
</g>
</svg>
